<svg width="157" height="44" viewBox="0 0 157 44" fill="none" xmlns="http://www.w3.org/2000/svg">
<path d="M119 8.79455C119 7.83232 119.685 7.00648 120.631 6.8289L154.631 0.444835C155.862 0.213699 157 1.158 157 2.41048V41.6627C157 42.8906 155.904 43.8285 154.691 43.6387L120.691 38.3186C119.717 38.1663 119 37.3279 119 36.3427V8.79455Z" fill="#878787"/>
<path d="M5.28 37.08C3.86667 37.08 3.16 36.6933 3.16 35.92V10.08C3.16 9.30667 3.86667 8.92 5.28 8.92H6.28C7.72 8.92 8.44 9.30667 8.44 10.08V21.32H8.6L16.52 9.6C16.7067 9.33333 17 9.16 17.4 9.08C17.8267 8.97333 18.3067 8.92 18.84 8.92H20.24C21.52 8.92 22.16 9.10667 22.16 9.48C22.16 9.72 22.0533 10 21.84 10.32L13.32 22.36L23.24 35.72C23.4533 36.0133 23.56 36.2667 23.56 36.48C23.56 36.88 22.8667 37.08 21.48 37.08H19.8C19.2667 37.08 18.7867 37.04 18.36 36.96C17.96 36.88 17.6533 36.6933 17.44 36.4L8.6 24L8.44 24.04V35.92C8.44 36.6933 7.72 37.08 6.28 37.08H5.28ZM36.4759 37.28C32.3959 37.28 29.2626 36.0533 27.0759 33.6C24.8893 31.1467 23.7959 27.6133 23.7959 23C23.7959 18.3333 24.8893 14.7867 27.0759 12.36C29.2626 9.93333 32.3959 8.72 36.4759 8.72C40.5559 8.72 43.6759 9.93333 45.8359 12.36C48.0226 14.7867 49.1159 18.3333 49.1159 23C49.1159 27.6133 48.0226 31.1467 45.8359 33.6C43.6759 36.0533 40.5559 37.28 36.4759 37.28ZM36.4759 32.8C38.8493 32.8 40.6493 31.96 41.8759 30.28C43.1026 28.6 43.7159 26.16 43.7159 22.96C43.7159 19.7867 43.1026 17.3733 41.8759 15.72C40.6493 14.04 38.8493 13.2 36.4759 13.2C34.1026 13.2 32.2893 14.04 31.0359 15.72C29.8093 17.3733 29.1959 19.7867 29.1959 22.96C29.1959 26.16 29.8093 28.6 31.0359 30.28C32.2893 31.96 34.1026 32.8 36.4759 32.8ZM67.3338 29.92C66.7204 29.92 66.2671 29.6933 65.9738 29.24L60.2938 19.2C60.1071 18.9333 59.9338 18.6667 59.7738 18.4C59.6404 18.1333 59.5071 17.8533 59.3738 17.56L59.2138 17.6C59.2404 17.9467 59.2538 18.2933 59.2538 18.64C59.2538 18.96 59.2538 19.2933 59.2538 19.64V35.92C59.2538 36.6933 58.5471 37.08 57.1338 37.08H56.2538C54.8404 37.08 54.1338 36.6933 54.1338 35.92V10.08C54.1338 9.30667 54.8404 8.92 56.2538 8.92H58.1338C58.6938 8.92 59.1604 9 59.5338 9.16C59.9338 9.29333 60.2138 9.53333 60.3738 9.88L67.3338 22.16C67.4404 22.3467 67.5471 22.56 67.6538 22.8C67.7871 23.0133 67.8938 23.24 67.9738 23.48C68.0538 23.24 68.1604 23 68.2938 22.76C68.4271 22.52 68.5338 22.3067 68.6138 22.12L75.5738 9.88C75.7604 9.53333 76.0404 9.29333 76.4138 9.16C76.8138 9 77.2804 8.92 77.8138 8.92H79.6538C81.0671 8.92 81.7738 9.30667 81.7738 10.08V35.92C81.7738 36.6933 81.0671 37.08 79.6538 37.08H78.7738C77.3604 37.08 76.6538 36.6933 76.6538 35.92V19.72C76.6538 19.3733 76.6538 19.04 76.6538 18.72C76.6804 18.3733 76.6938 18.0267 76.6938 17.68L76.5338 17.64C76.4004 17.9333 76.2538 18.2133 76.0938 18.48C75.9604 18.7467 75.8004 19.0133 75.6138 19.28L69.9738 29.24C69.6804 29.6933 69.2271 29.92 68.6138 29.92H67.3338ZM89.6047 37C88.618 37 88.1247 36.5067 88.1247 35.52V10.48C88.1247 9.49333 88.618 9 89.6047 9H97.2447C100.498 9 102.858 9.65333 104.325 10.96C105.791 12.2667 106.525 13.9733 106.525 16.08C106.525 16.9867 106.325 17.8533 105.925 18.68C105.525 19.48 104.991 20.1867 104.325 20.8C103.685 21.4133 102.965 21.8667 102.165 22.16L102.205 22.32C102.631 22.4 103.085 22.56 103.565 22.8C104.045 23.04 104.525 23.3467 105.005 23.72C105.511 24.0933 105.965 24.5467 106.365 25.08C106.765 25.5867 107.085 26.16 107.325 26.8C107.565 27.44 107.685 28.1467 107.685 28.92C107.685 31.56 106.831 33.5733 105.125 34.96C103.445 36.32 100.911 37 97.5247 37H89.6047ZM93.3647 32.52H97.9647C99.3514 32.52 100.418 32.1733 101.165 31.48C101.911 30.7867 102.285 29.8267 102.285 28.6C102.285 27.4267 101.858 26.5333 101.005 25.92C100.151 25.28 98.9247 24.96 97.3247 24.96H93.3647V32.52ZM93.3647 20.48H96.8047C98.138 20.48 99.1914 20.1333 99.9647 19.44C100.738 18.7467 101.125 17.8933 101.125 16.88C101.125 15.7333 100.778 14.88 100.085 14.32C99.3914 13.7333 98.298 13.44 96.8047 13.44H93.3647V20.48ZM113.636 37.12C112.222 37.12 111.516 36.72 111.516 35.92V10.08C111.516 9.28 112.222 8.88 113.636 8.88H114.676C116.089 8.88 116.796 9.28 116.796 10.08V35.92C116.796 36.72 116.089 37.12 114.676 37.12H113.636ZM114.196 7.12C113.289 7.12 112.636 7.02667 112.236 6.84C111.836 6.65333 111.636 6.37333 111.636 6V3.12C111.636 2.74666 111.836 2.46666 112.236 2.28C112.636 2.09333 113.289 2 114.196 2C115.076 2 115.716 2.09333 116.116 2.28C116.516 2.46666 116.716 2.74666 116.716 3.12V6C116.716 6.37333 116.516 6.65333 116.116 6.84C115.716 7.02667 115.076 7.12 114.196 7.12Z" fill="#7A818C"/>
<path d="M136.084 29.92C135.47 29.92 135.017 29.6933 134.724 29.24L129.044 19.2C128.857 18.9333 128.684 18.6667 128.524 18.4C128.39 18.1333 128.257 17.8533 128.124 17.56L127.964 17.6C127.99 17.9467 128.004 18.2933 128.004 18.64C128.004 18.96 128.004 19.2933 128.004 19.64V35.92C128.004 36.6933 127.297 37.08 125.884 37.08H125.004C123.59 37.08 122.884 36.6933 122.884 35.92V10.08C122.884 9.30667 123.59 8.92 125.004 8.92H126.884C127.444 8.92 127.91 9 128.284 9.16C128.684 9.29333 128.964 9.53333 129.124 9.88L136.084 22.16C136.19 22.3467 136.297 22.56 136.404 22.8C136.537 23.0133 136.644 23.24 136.724 23.48C136.804 23.24 136.91 23 137.044 22.76C137.177 22.52 137.284 22.3067 137.364 22.12L144.324 9.88C144.51 9.53333 144.79 9.29333 145.164 9.16C145.564 9 146.03 8.92 146.564 8.92H148.404C149.817 8.92 150.524 9.30667 150.524 10.08V35.92C150.524 36.6933 149.817 37.08 148.404 37.08H147.524C146.11 37.08 145.404 36.6933 145.404 35.92V19.72C145.404 19.3733 145.404 19.04 145.404 18.72C145.43 18.3733 145.444 18.0267 145.444 17.68L145.284 17.64C145.15 17.9333 145.004 18.2133 144.844 18.48C144.71 18.7467 144.55 19.0133 144.364 19.28L138.724 29.24C138.43 29.6933 137.977 29.92 137.364 29.92H136.084Z" fill="white"/>
</svg>
