<svg width="33" height="32" viewBox="0 0 33 32" fill="none" xmlns="http://www.w3.org/2000/svg">
<rect x="0.849976" y="0.5" width="30.9" height="30.9" rx="15.45" stroke="#2B69C6"/>
<path fill-rule="evenodd" clip-rule="evenodd" d="M9.3219 10.9719C9.3219 9.8673 10.2173 8.97186 11.3219 8.97186H21.2781C22.3827 8.97186 23.2781 9.86729 23.2781 10.9719V20.9281C23.2781 22.0327 22.3827 22.9281 21.2781 22.9281H11.3219C10.2173 22.9281 9.3219 22.0327 9.3219 20.9281V10.9719ZM16.3001 13.2935C14.833 13.2935 13.6436 14.4829 13.6436 15.95C13.6436 17.4171 14.833 18.6064 16.3001 18.6064C17.7672 18.6064 18.9565 17.4171 18.9565 15.95C18.9565 14.4829 17.7672 13.2935 16.3001 13.2935ZM12.4436 15.95C12.4436 13.8201 14.1702 12.0935 16.3001 12.0935C18.43 12.0935 20.1565 13.8201 20.1565 15.95C20.1565 18.0799 18.43 19.8064 16.3001 19.8064C14.1702 19.8064 12.4436 18.0799 12.4436 15.95ZM20.4868 12.6935C21.0007 12.6935 21.4173 12.277 21.4173 11.7631C21.4173 11.2493 21.0007 10.8327 20.4868 10.8327C19.973 10.8327 19.5564 11.2493 19.5564 11.7631C19.5564 12.277 19.973 12.6935 20.4868 12.6935Z" fill="#2B69C6"/>
</svg>
