<svg width="25" height="25" viewBox="0 0 25 25" fill="none" xmlns="http://www.w3.org/2000/svg">
<path fill-rule="evenodd" clip-rule="evenodd" d="M10.825 4.817C11.251 3.061 13.749 3.061 14.175 4.817C14.3046 5.35206 14.682 5.79302 15.1907 6.00375C15.6993 6.21447 16.2779 6.1696 16.748 5.883C18.291 4.943 20.058 6.709 19.118 8.253C18.8318 8.72285 18.7871 9.30108 18.9975 9.80938C19.208 10.3177 19.6484 10.695 20.183 10.825C21.939 11.251 21.939 13.749 20.183 14.175C19.6479 14.3046 19.207 14.682 18.9963 15.1907C18.7855 15.6993 18.8304 16.2779 19.117 16.748C20.057 18.291 18.291 20.058 16.747 19.118C16.2771 18.8318 15.6989 18.7871 15.1906 18.9975C14.6823 19.208 14.305 19.6484 14.175 20.183C13.749 21.939 11.251 21.939 10.825 20.183C10.6954 19.6479 10.318 19.207 9.80935 18.9963C9.30073 18.7855 8.72206 18.8304 8.252 19.117C6.709 20.057 4.942 18.291 5.882 16.747C6.16819 16.2771 6.21295 15.6989 6.00247 15.1906C5.792 14.6823 5.35157 14.305 4.817 14.175C3.061 13.749 3.061 11.251 4.817 10.825C5.35206 10.6954 5.79302 10.318 6.00375 9.80935C6.21447 9.30073 6.1696 8.72206 5.883 8.252C4.943 6.709 6.709 4.942 8.253 5.882C9.253 6.49 10.549 5.952 10.825 4.817Z" stroke="white" stroke-width="1.5" stroke-linecap="round" stroke-linejoin="round"/>
<path fill-rule="evenodd" clip-rule="evenodd" d="M10.825 4.817C11.251 3.061 13.749 3.061 14.175 4.817C14.3046 5.35206 14.682 5.79302 15.1907 6.00375C15.6993 6.21447 16.2779 6.1696 16.748 5.883C18.291 4.943 20.058 6.709 19.118 8.253C18.8318 8.72285 18.7871 9.30108 18.9975 9.80938C19.208 10.3177 19.6484 10.695 20.183 10.825C21.939 11.251 21.939 13.749 20.183 14.175C19.6479 14.3046 19.207 14.682 18.9963 15.1907C18.7855 15.6993 18.8304 16.2779 19.117 16.748C20.057 18.291 18.291 20.058 16.747 19.118C16.2771 18.8318 15.6989 18.7871 15.1906 18.9975C14.6823 19.208 14.305 19.6484 14.175 20.183C13.749 21.939 11.251 21.939 10.825 20.183C10.6954 19.6479 10.318 19.207 9.80935 18.9963C9.30073 18.7855 8.72206 18.8304 8.252 19.117C6.709 20.057 4.942 18.291 5.882 16.747C6.16819 16.2771 6.21295 15.6989 6.00247 15.1906C5.792 14.6823 5.35157 14.305 4.817 14.175C3.061 13.749 3.061 11.251 4.817 10.825C5.35206 10.6954 5.79302 10.318 6.00375 9.80935C6.21447 9.30073 6.1696 8.72206 5.883 8.252C4.943 6.709 6.709 4.942 8.253 5.882C9.253 6.49 10.549 5.952 10.825 4.817Z" stroke="white" stroke-opacity="0.2" stroke-width="1.5" stroke-linecap="round" stroke-linejoin="round"/>
<circle cx="12.5" cy="12.5" r="3" stroke="white" stroke-width="1.5" stroke-linecap="round" stroke-linejoin="round"/>
<circle cx="12.5" cy="12.5" r="3" stroke="white" stroke-opacity="0.2" stroke-width="1.5" stroke-linecap="round" stroke-linejoin="round"/>
</svg>
